<mxfile modified="2024-02-17T15:43:29.616Z" host="app.diagrams.net" agent="Mozilla/5.0 (Windows NT 10.0; Win64; x64) AppleWebKit/537.36 (KHTML, like Gecko) Chrome/121.0.0.0 Safari/537.36" etag="_s_cYSu2hyhXQ5b16tdH" version="23.1.5" type="github">
  <diagram id="WI9T0HZ2pTsCkuznbFz-" name="Page-1">
    <mxGraphModel dx="1709" dy="901" grid="1" gridSize="10" guides="1" tooltips="1" connect="1" arrows="1" fold="1" page="1" pageScale="1" pageWidth="1169" pageHeight="827" math="0" shadow="0">
      <root>
        <mxCell id="0" />
        <mxCell id="1" parent="0" />
        <mxCell id="AcxdMaKK0mU5kZiv2lnr-49" style="edgeStyle=elbowEdgeStyle;rounded=0;orthogonalLoop=1;jettySize=auto;elbow=vertical;html=1;strokeColor=#808080;entryX=-0.032;entryY=0.493;entryDx=0;entryDy=0;entryPerimeter=0;exitX=1.016;exitY=0.498;exitDx=0;exitDy=0;exitPerimeter=0;" parent="1" source="RLjyjs_sm2IHfBNOWAbh-12" target="RLjyjs_sm2IHfBNOWAbh-14" edge="1">
          <mxGeometry relative="1" as="geometry">
            <mxPoint x="845.5" y="45.5" as="sourcePoint" />
            <mxPoint x="1105.5" y="45.5" as="targetPoint" />
          </mxGeometry>
        </mxCell>
        <mxCell id="RLjyjs_sm2IHfBNOWAbh-35" style="edgeStyle=elbowEdgeStyle;rounded=0;orthogonalLoop=1;jettySize=auto;html=1;strokeColor=#808080;entryX=-0.003;entryY=0.508;entryDx=0;entryDy=0;entryPerimeter=0;" parent="1" target="RLjyjs_sm2IHfBNOWAbh-19" edge="1">
          <mxGeometry relative="1" as="geometry">
            <mxPoint x="284.5" y="379.5" as="sourcePoint" />
          </mxGeometry>
        </mxCell>
        <mxCell id="RLjyjs_sm2IHfBNOWAbh-27" style="edgeStyle=elbowEdgeStyle;rounded=0;orthogonalLoop=1;jettySize=auto;html=1;strokeColor=#808080;entryX=-0.038;entryY=0.5;entryDx=0;entryDy=0;entryPerimeter=0;exitX=1.031;exitY=0.506;exitDx=0;exitDy=0;exitPerimeter=0;elbow=vertical;" parent="1" source="RLjyjs_sm2IHfBNOWAbh-14" target="RLjyjs_sm2IHfBNOWAbh-16" edge="1">
          <mxGeometry relative="1" as="geometry" />
        </mxCell>
        <mxCell id="RLjyjs_sm2IHfBNOWAbh-37" style="edgeStyle=elbowEdgeStyle;rounded=0;orthogonalLoop=1;jettySize=auto;html=1;strokeColor=#808080;entryX=0.496;entryY=0.02;entryDx=0;entryDy=0;entryPerimeter=0;exitX=0.497;exitY=1;exitDx=0;exitDy=0;exitPerimeter=0;" parent="1" source="RLjyjs_sm2IHfBNOWAbh-16" target="RLjyjs_sm2IHfBNOWAbh-19" edge="1">
          <mxGeometry relative="1" as="geometry" />
        </mxCell>
        <mxCell id="RLjyjs_sm2IHfBNOWAbh-28" style="edgeStyle=elbowEdgeStyle;rounded=0;orthogonalLoop=1;jettySize=auto;html=1;strokeColor=#808080;" parent="1" source="RLjyjs_sm2IHfBNOWAbh-17" target="RLjyjs_sm2IHfBNOWAbh-24" edge="1">
          <mxGeometry relative="1" as="geometry">
            <Array as="points">
              <mxPoint x="909.5" y="295.5" />
            </Array>
          </mxGeometry>
        </mxCell>
        <mxCell id="RLjyjs_sm2IHfBNOWAbh-36" style="edgeStyle=elbowEdgeStyle;rounded=0;orthogonalLoop=1;jettySize=auto;html=1;strokeColor=#808080;exitX=0.997;exitY=0.495;exitDx=0;exitDy=0;exitPerimeter=0;" parent="1" source="RLjyjs_sm2IHfBNOWAbh-19" target="RLjyjs_sm2IHfBNOWAbh-23" edge="1">
          <mxGeometry relative="1" as="geometry" />
        </mxCell>
        <mxCell id="RLjyjs_sm2IHfBNOWAbh-32" style="edgeStyle=elbowEdgeStyle;rounded=0;orthogonalLoop=1;jettySize=auto;html=1;strokeColor=#808080;entryX=0.996;entryY=0.508;entryDx=0;entryDy=0;entryPerimeter=0;startArrow=classic;startFill=1;elbow=vertical;" parent="1" target="RLjyjs_sm2IHfBNOWAbh-21" edge="1">
          <mxGeometry relative="1" as="geometry">
            <mxPoint x="695.5" y="503.5" as="sourcePoint" />
          </mxGeometry>
        </mxCell>
        <mxCell id="RLjyjs_sm2IHfBNOWAbh-33" style="edgeStyle=elbowEdgeStyle;rounded=0;orthogonalLoop=1;jettySize=auto;html=1;strokeColor=#808080;" parent="1" source="RLjyjs_sm2IHfBNOWAbh-20" edge="1">
          <mxGeometry relative="1" as="geometry">
            <mxPoint x="720.5" y="405.5" as="targetPoint" />
          </mxGeometry>
        </mxCell>
        <mxCell id="RLjyjs_sm2IHfBNOWAbh-31" style="edgeStyle=elbowEdgeStyle;rounded=0;orthogonalLoop=1;jettySize=auto;html=1;strokeColor=#808080;" parent="1" source="RLjyjs_sm2IHfBNOWAbh-22" edge="1">
          <mxGeometry relative="1" as="geometry">
            <mxPoint x="720.5" y="525.5" as="targetPoint" />
          </mxGeometry>
        </mxCell>
        <mxCell id="RLjyjs_sm2IHfBNOWAbh-29" style="edgeStyle=elbowEdgeStyle;rounded=0;orthogonalLoop=1;jettySize=auto;html=1;entryX=0.494;entryY=1.052;entryDx=0;entryDy=0;entryPerimeter=0;strokeColor=#808080;" parent="1" source="RLjyjs_sm2IHfBNOWAbh-23" target="RLjyjs_sm2IHfBNOWAbh-24" edge="1">
          <mxGeometry relative="1" as="geometry" />
        </mxCell>
        <mxCell id="RLjyjs_sm2IHfBNOWAbh-30" style="edgeStyle=elbowEdgeStyle;rounded=0;orthogonalLoop=1;jettySize=auto;html=1;strokeColor=#808080;exitX=0.62;exitY=1.036;exitDx=0;exitDy=0;exitPerimeter=0;startArrow=classic;startFill=1;" parent="1" source="RLjyjs_sm2IHfBNOWAbh-23" edge="1">
          <mxGeometry relative="1" as="geometry">
            <mxPoint x="745.5" y="616.5" as="targetPoint" />
            <Array as="points">
              <mxPoint x="913.5" y="616.5" />
            </Array>
          </mxGeometry>
        </mxCell>
        <mxCell id="RLjyjs_sm2IHfBNOWAbh-12" value="Diagrnostic &lt;br&gt;Events" style="aspect=fixed;html=1;perimeter=none;align=center;shadow=0;dashed=0;image;fontSize=12;image=img/lib/mscae/DirectorySync.svg;labelBackgroundColor=#ffffff;fillColor=#4D9900;" parent="1" vertex="1">
          <mxGeometry x="235.5" y="198.99999999999994" width="50" height="50" as="geometry" />
        </mxCell>
        <mxCell id="RLjyjs_sm2IHfBNOWAbh-14" value="Event Hub" style="aspect=fixed;html=1;perimeter=none;align=center;shadow=0;dashed=0;image;fontSize=12;image=img/lib/mscae/Event_Hubs.svg;labelBackgroundColor=#ffffff;fillColor=#4D9900;" parent="1" vertex="1">
          <mxGeometry x="465.5" y="198.99999999999994" width="48.5" height="50" as="geometry" />
        </mxCell>
        <mxCell id="RLjyjs_sm2IHfBNOWAbh-16" value="Predictive Analytics" style="aspect=fixed;html=1;perimeter=none;align=center;shadow=0;dashed=0;image;fontSize=12;image=img/lib/mscae/Stream_Analytics.svg;labelBackgroundColor=#ffffff;fillColor=#4D9900;" parent="1" vertex="1">
          <mxGeometry x="688.0000000000001" y="198.5" width="65" height="51" as="geometry" />
        </mxCell>
        <mxCell id="RLjyjs_sm2IHfBNOWAbh-17" value="Machine&lt;br&gt;Learning" style="aspect=fixed;html=1;perimeter=none;align=left;shadow=0;dashed=0;image;fontSize=12;image=img/lib/mscae/Machine_Learning.svg;labelBackgroundColor=#ffffff;fillColor=#4D9900;labelPosition=right;verticalLabelPosition=bottom;verticalAlign=top;" parent="1" vertex="1">
          <mxGeometry x="745.5" y="183.5" width="29" height="30" as="geometry" />
        </mxCell>
        <mxCell id="RLjyjs_sm2IHfBNOWAbh-19" value="Geography&lt;br&gt;Data" style="aspect=fixed;html=1;perimeter=none;align=center;shadow=0;dashed=0;image;fontSize=12;image=img/lib/mscae/BlobBlock.svg;labelBackgroundColor=#ffffff;fillColor=#4D9900;spacingTop=7;" parent="1" vertex="1">
          <mxGeometry x="695.5000000000001" y="358.2499999999999" width="50" height="42.5" as="geometry" />
        </mxCell>
        <mxCell id="RLjyjs_sm2IHfBNOWAbh-20" value="HDInsight" style="aspect=fixed;html=1;perimeter=none;align=center;shadow=0;dashed=0;image;fontSize=12;image=img/lib/mscae/HDInsight.svg;labelBackgroundColor=#ffffff;fillColor=#4D9900;spacingTop=4;" parent="1" vertex="1">
          <mxGeometry x="695.5000000000001" y="484.2500000000001" width="50" height="38.5" as="geometry" />
        </mxCell>
        <mxCell id="RLjyjs_sm2IHfBNOWAbh-21" value="Machine&lt;br&gt;Learning" style="aspect=fixed;html=1;perimeter=none;align=center;shadow=0;dashed=0;image;fontSize=12;image=img/lib/mscae/Machine_Learning.svg;labelBackgroundColor=#ffffff;fillColor=#4D9900;" parent="1" vertex="1">
          <mxGeometry x="555.5" y="478.5000000000001" width="49" height="50" as="geometry" />
        </mxCell>
        <mxCell id="RLjyjs_sm2IHfBNOWAbh-22" value="Data Factory" style="aspect=fixed;html=1;perimeter=none;align=center;shadow=0;dashed=0;image;fontSize=12;image=img/lib/mscae/Data_Factory.svg;labelBackgroundColor=#ffffff;fillColor=#4D9900;" parent="1" vertex="1">
          <mxGeometry x="695.5000000000001" y="591.5" width="50" height="50" as="geometry" />
        </mxCell>
        <mxCell id="RLjyjs_sm2IHfBNOWAbh-23" value="SQL Data&lt;br&gt;Warehouse" style="aspect=fixed;html=1;perimeter=none;align=center;shadow=0;dashed=0;image;fontSize=12;image=img/lib/mscae/SQL_Database_generic.svg;labelBackgroundColor=#ffffff;fillColor=#4D9900;spacingTop=6;" parent="1" vertex="1">
          <mxGeometry x="890.2499999999998" y="478.5" width="37.5" height="50" as="geometry" />
        </mxCell>
        <mxCell id="RLjyjs_sm2IHfBNOWAbh-24" value="Power BI" style="shadow=0;dashed=0;html=1;strokeColor=none;labelPosition=center;verticalLabelPosition=bottom;verticalAlign=top;align=center;shape=mxgraph.mscae.cloud.power_bi_embedded;fillColor=#000000;pointerEvents=1;labelBackgroundColor=#ffffff;spacingTop=7;" parent="1" vertex="1">
          <mxGeometry x="885.4999999999999" y="354.5" width="47" height="50" as="geometry" />
        </mxCell>
        <mxCell id="Okz8gtZFZ3mbfs9toAgA-1" value="Electronic&lt;br&gt;Health Records" style="shape=image;html=1;verticalAlign=top;verticalLabelPosition=bottom;labelBackgroundColor=#ffffff;imageAspect=0;aspect=fixed;image=https://cdn4.iconfinder.com/data/icons/medic-two-tone/32/Hospital_-128.png" vertex="1" parent="1">
          <mxGeometry x="217.25" y="345.5" width="68" height="68" as="geometry" />
        </mxCell>
        <mxCell id="Okz8gtZFZ3mbfs9toAgA-2" value="" style="shape=image;html=1;verticalAlign=top;verticalLabelPosition=bottom;labelBackgroundColor=#ffffff;imageAspect=0;aspect=fixed;image=https://cdn3.iconfinder.com/data/icons/clinical-3/96/medical-history-128.png" vertex="1" parent="1">
          <mxGeometry x="265.75" y="331" width="38" height="38" as="geometry" />
        </mxCell>
      </root>
    </mxGraphModel>
  </diagram>
</mxfile>
